Inglourious Basterds PPV XViD-IMAGiNE

Ripper ...........: IMAGiNE
IMDB Rating.......:8.6/10
Video Codec.......: XVID
Release Date......:21/08/2009
Audio Codec.......:mp3
Audio Bitrate.....:128
Runtime...........:2h 32mn
Subtitles.........:English hard coded for foreign parts
Language..........:ENGLISH
Resolution...... 624 x 352

DETAILS:
Video
ID : 0
Format : MPEG-4 Visual
Format profile : AdvancedSimple@L5
Format settings, BVOP : Yes
Format settings, QPel : No
Format settings, GMC : No warppoints
Format settings, Matrix : Default (H.263)
Muxing mode : Packed bitstream
Codec ID : XVID
Codec ID/Hint : XviD
Duration : 2h 32mn
Bit rate : 888 Kbps
Width : 624 pixels
Height : 352 pixels
Display aspect ratio : 16:9
Frame rate : 23.976 fps
Resolution : 24 bits
Colorimetry : 4:2:0
Scan type : Progressive
Bits/(Pixel*Frame) : 0.169
Stream size : 970 MiB (87%)
Writing library : XviD 1.2.1 (UTC 2008-12-04)
Audio
ID : 1
Format : MPEG Audio
Format version : Version 1
Format profile : Layer 3
Codec ID : 55
Codec ID/Hint : MP3
Duration : 2h 32mn
Bit rate mode : Constant
Bit rate : 128 Kbps
Channel(s) : 2 channels
Sampling rate : 48.0 KHz
Resolution : 16 bits
Stream size : 140 MiB (12%)
Alignment : Split accross interleaves
Interleave, duration : 42 ms (1.00 video frame)
Interleave, preload duration : 500 ms
Writing library : LAME3.98.2 
http://www.imdb.com/title/tt0361748/


Screens: 
http://www.postimg.com/image/8000/7922.jpg 
http://www.postimg.com/image/8000/7923.jpg 
http://www.postimg.com/image/8000/7924.jpg

Inglourious Basterds PPV XViD-IMAGiNE Torrent Free Download